Coordinates
version=1
nRows=12
nColumns=24
inDegrees=yes

Units are S.I. units (second, meters, Newtons, ...)
Angles are in degrees.

endheader
time	pelvis_tilt	pelvis_list	pelvis_rotation	pelvis_tx	pelvis_ty	pelvis_tz	hip_flexion_r	hip_adduction_r	hip_rotation_r	knee_angle_r	ankle_angle_r	subtalar_angle_r	mtp_angle_r	hip_flexion_l	hip_adduction_l	hip_rotation_l	knee_angle_l	ankle_angle_l	subtalar_angle_l	mtp_angle_l	lumbar_extension	lumbar_bending	lumbar_rotation
      6.26000000	     61.46324945	      0.85072241	     -5.58727039	      0.54983028	      0.99851698	     -0.29325307	     18.97804958	    -13.85173867	     -3.80309549	    -71.99223169	     -4.35166597	      9.64720392	    -48.48540892	     -3.23677954	     -4.88760245	      0.63044050	    -59.91020406	    -27.75976395	     18.26333126	    125.89390318	      0.00000000	      0.00000000	      0.00000000
      6.27000000	     61.45269186	      0.82404294	     -5.60880464	      0.54976377	      0.99851924	     -0.29327026	     19.20704100	    -13.77361950	     -3.85185700	    -72.17086337	     -4.33912605	      9.66089885	    -48.52662250	     -3.21629338	     -4.87874529	      0.65101400	    -60.03629976	    -27.64416474	     18.25810563	    125.69451501	      0.00000000	      0.00000000	      0.00000000
      6.28000000	     61.43655688	      0.79272323	     -5.62811822	      0.54969183	      0.99851199	     -0.29327215	     19.43595539	    -13.68847336	     -3.90038673	    -72.34972216	     -4.32040303	      9.68580089	    -48.56103545	     -3.17781181	     -4.88475057	      0.66942553	    -60.15840339	    -27.55087450	     18.26193585	    125.53313289	      0.00000000	      0.00000000	      0.00000000
      6.29000000	     61.40792524	      0.75761398	     -5.64549306	      0.54962154	      0.99851578	     -0.29326456	     19.66495986	    -13.59765022	     -3.94395641	    -72.52545910	     -4.28876686	      9.73179723	    -48.59004926	     -3.12202130	     -4.90264783	      0.68737423	    -60.27219263	    -27.48251701	     18.27203407	    125.40969104	      0.00000000	      0.00000000	      0.00000000
      6.30000000	     61.36386252	      0.72131066	     -5.66120011	      0.54956250	      0.99851604	     -0.29324807	     19.89324002	    -13.50547370	     -3.98025029	    -72.69618566	     -4.24119243	      9.80245683	    -48.61483663	     -3.05163155	     -4.92732963	      0.70623435	    -60.37724433	    -27.43624192	     18.28460409	    125.31845516	      0.00000000	      0.00000000	      0.00000000
      6.31000000	     61.30703684	      0.68707512	     -5.67522660	      0.54951770	      0.99850252	     -0.29322975	     20.12091387	    -13.41693526	     -4.01049594	    -72.86252291	     -4.17900262	      9.89435719	    -48.63588448	     -2.97048364	     -4.95352772	      0.72619485	    -60.47568644	    -27.40571076	     18.29633410	    125.25032138	      0.00000000	      0.00000000	      0.00000000
      6.32000000	     61.24432717	      0.65724592	     -5.68715504	      0.54947692	      0.99850961	     -0.29322592	     20.34983625	    -13.33565083	     -4.03864225	    -73.02725886	     -4.10735398	      9.99864935	    -48.65288701	     -2.88308919	     -4.97713934	      0.74596701	    -60.57059347	    -27.38356642	     18.30568859	    125.19548060	      0.00000000	      0.00000000	      0.00000000
      6.33000000	     61.18225429	      0.63161610	     -5.69691600	      0.54942324	      0.99855838	     -0.29323855	     20.58120166	    -13.26343678	     -4.06853845	    -73.19414467	     -4.03363889	     10.10400604	    -48.66497572	     -2.79361212	     -4.99624934	      0.76329877	    -60.66462851	    -27.36358113	     18.31344322	    125.14603585	      0.00000000	      0.00000000	      0.00000000
      6.34000000	     61.12394448	      0.60802779	     -5.70579852	      0.54935595	      0.99861094	     -0.29326318	     20.81376416	    -13.19997175	     -4.10172965	    -73.36605972	     -3.96526232	     10.19976815	    -48.67120632	     -2.70453160	     -5.01194543	      0.77606217	    -60.75914983	    -27.34196555	     18.32220540	    125.09815315	      0.00000000	      0.00000000	      0.00000000
      6.35000000	     61.06958233	      0.58370851	     -5.71606360	      0.54928692	      0.99862957	     -0.29330114	     21.04540456	    -13.14275901	     -4.13700156	    -73.54342368	     -3.90756948	     10.27830730	    -48.67115506	     -2.61614892	     -5.02823051	      0.78312212	    -60.85397293	    -27.31772934	     18.33512284	    125.05338275	      0.00000000	      0.00000000	      0.00000000
      6.36000000	     61.01753930	      0.55593151	     -5.72950752	      0.54921712	      0.99862651	     -0.29334688	     21.27534041	    -13.08773996	     -4.17141495	    -73.72409517	     -3.86263357	     10.33624036	    -48.66543532	     -2.52737213	     -5.05051282	      0.78434963	    -60.94781859	    -27.29231542	     18.35438478	    125.01890171	      0.00000000	      0.00000000	      0.00000000
      6.37000000	     60.96484665	      0.52271403	     -5.74676362	      0.54913584	      0.99862791	     -0.29338483	     21.50432114	    -13.02989278	     -4.20224886	    -73.90477253	     -3.82913091	     10.37464741	    -48.65597007	     -2.43688496	     -5.08347073	      0.77997778	    -61.03919867	    -27.26881228	     18.38017319	    125.00658818	      0.00000000	      0.00000000	      0.00000000
